PathFileType	4	(X/Y/Z)	Walk9.trc
DataRate	CameraRate	NumFrames	NumMarkers	Units	OrigDataRate	OrigDataStartFrame	OrigNumFrames
200.000000	200.000000	4	61	mm	200.000000	434	503
Frame#	Times		LFHD		RFHD		CLAV		LASI		RASI		RACR1		RUA1		RFA1		RWRR		RCAR		LACR1		LUA1		LWRU		RTH3		RTB4		LTH1		LTH3		LTH4		LTB1		LTB2		LTB4		LLFC		RTB1		LCAR		LFA1		RTB3		STRN		RMFC		RMT5		RToe		RLFC		LTH2		RTH2		RMT1		LBHD		LTB3		RTB2		LWRR		LElbow		RMMAL		RTH4		RWRU		RLMAL		RCAL		LPSI		RElbow		RTH1		RBHD		T10		RPSI		RBack		LMFC		C7		RElbowM		LElbowM		LLMAL		LCAL		LMT5		LToe		LMT1		LMMAL
			X1	Y1	Z1	X2	Y2	Z2	X3	Y3	Z3	X4	Y4	Z4	X5	Y5	Z5	X6	Y6	Z6	X7	Y7	Z7	X8	Y8	Z8	X9	Y9	Z9	X10	Y10	Z10	X11	Y11	Z11	X12	Y12	Z12	X13	Y13	Z13	X14	Y14	Z14	X15	Y15	Z15	X16	Y16	Z16	X17	Y17	Z17	X18	Y18	Z18	X19	Y19	Z19	X20	Y20	Z20	X21	Y21	Z21	X22	Y22	Z22	X23	Y23	Z23	X24	Y24	Z24	X25	Y25	Z25	X26	Y26	Z26	X27	Y27	Z27	X28	Y28	Z28	X29	Y29	Z29	X30	Y30	Z30	X31	Y31	Z31	X32	Y32	Z32	X33	Y33	Z33	X34	Y34	Z34	X35	Y35	Z35	X36	Y36	Z36	X37	Y37	Z37	X38	Y38	Z38	X39	Y39	Z39	X40	Y40	Z40	X41	Y41	Z41	X42	Y42	Z42	X43	Y43	Z43	X44	Y44	Z44	X45	Y45	Z45	X46	Y46	Z46	X47	Y47	Z47	X48	Y48	Z48	X49	Y49	Z49	X50	Y50	Z50	X51	Y51	Z51	X52	Y52	Z52	X53	Y53	Z53	X54	Y54	Z54	X55	Y55	Z55	X56	Y56	Z56	X57	Y57	Z57	X58	Y58	Z58	X59	Y59	Z59	X60	Y60	Z60	X61	Y61	Z61

434	2.17	989.43	1580.4	-88.775	982.39	1583.1	10.598	961.08	1297.6	-36.716	941.52	899.24	-131.46	935.23	896.73	116.53	894.98	1335.5	130.03	890.33	1168.5	189.81	977.57	901.78	249.4	1069.7	824.05	207.8	1093.3	759.76	254.66	886.66	1337.6	-193.07	845.8	1164.8	-246.82	801.37	762.82	-291.69	870.03	556.54	159.03	700.71	268.06	108.77	919.37	734.47	-201.3	964.61	573.46	-159.82	941.52	652.7	-182.6	1040	344.68	-62.304	1020.2	255.59	-116.04	1028.4	259.25	-55.504	1005.1	440.97	-133.56	775.18	313.85	114.11	751.36	708.44	-321.32	774.63	886.29	-291.99	626.38	225.34	101.29	983.29	1162.5	-30.503	826.66	402.39	12.873	488.19	93.309	114.63	533.86	30.76	66.96	841.96	407.92	141.38	995.51	673.82	-166.34	926.24	643.32	144.4	516.55	76.012	34.996	855.16	1502.2	-118.57	1022.1	175.4	-47.119	674.53	307.91	147.95	733.99	775.43	-279.19	789.56	1018.5	-260.46	528.12	208.79	38.816	874.37	639.26	170.45	1024.3	791.6	247.1	504.48	212.88	118.22	469.33	251.85	76.84	763.36	950.54	-59.479	886.84	1003.7	232.8	882.03	725.28	186.06	846.85	1512.8	25.823	774.69	1192.8	-22.648	764.21	943.72	40.512	773.05	1280.9	41.037	981.55	433.41	-3.4131	851.58	1401.7	-39.348	858.97	991.24	157.99	785.43	1000.7	-187.66	971.66	63.17	-90.995	913.3	35.439	-50.664	1076.2	23.501	-99.769	1162.9	26.697	-42.353	1106.6	29.753	-15.918	979.4	83.095	-10.544
435	2.175	996.78	1581.2	-89.368	989.69	1584.2	9.9991	968.2	1298.5	-36.789	948.63	900.44	-132.04	942.11	897.71	116.22	901.95	1336.6	129.77	897.08	1169.5	189.48	982.66	901.79	249.29	1074.2	823.01	208.03	1097	758.59	255.05	894.24	1338.5	-193.26	854.77	1165.5	-247.44	815.66	763.24	-293.81	882.14	556.89	158.79	714.62	269.38	108.03	925.77	735.28	-201.65	969.27	573.76	-160.28	946.98	653.25	-182.99	1042.6	344.11	-62.808	1021.7	255.15	-116.4	1030.2	258.77	-55.899	1008.3	440.66	-134.02	789.61	314.36	113.23	766.8	708.38	-324.25	787.25	886.27	-294.1	639.79	227.45	100.74	990.25	1163.4	-30.536	841.95	402.33	12.23	500.75	96.954	114.96	545.56	32.732	67.933	856.77	408.02	141.05	1001.2	673.77	-166.71	936.92	644.68	143.97	529.04	78.967	35.599	862.47	1503	-119.02	1023.1	175	-47.416	689.16	309.06	147.85	747.96	774.85	-281.93	800.04	1018.7	-262.12	541.15	212.1	38.653	885.1	639.67	170.09	1028.2	791.12	247.26	517.72	216.36	118.13	482.59	255.53	76.799	770.38	951.44	-59.692	893.02	1004.6	232.23	891.23	725.89	185.53	854.13	1513.9	25.36	781.73	1193.8	-23.003	771.1	944.46	40.207	780.03	1282	40.693	984.84	433.39	-3.8799	858.78	1402.7	-39.671	865.51	992.33	157.27	795.34	1000.7	-189.34	971.56	63.139	-91.078	913.2	35.421	-50.751	1076.1	23.557	-99.943	1162.9	26.685	-42.458	1106.5	29.841	-15.974	979.49	83.136	-10.622
436	2.18	1004.1	1582	-89.935	997	1585.3	9.4271	975.26	1299.5	-36.825	955.72	901.63	-132.58	948.96	898.79	115.94	908.79	1337.6	129.55	903.72	1170.5	189.19	987.71	901.86	249.21	1078.5	822.03	208.26	1100.5	757.46	255.43	901.75	1339.4	-193.42	863.68	1166.3	-248.04	830.1	763.78	-295.85	894.12	557.46	158.57	728.74	270.78	107.27	932.1	736.08	-201.96	973.76	574.05	-160.71	952.31	653.8	-183.35	1044.9	343.55	-63.329	1023.1	254.74	-116.77	1031.8	258.31	-56.311	1011.3	440.35	-134.45	804.18	315.06	112.32	782.43	708.42	-327.1	799.96	886.33	-296.16	653.48	229.52	100.16	997.18	1164.3	-30.515	857.11	402.63	11.603	514.18	100.28	115.23	558.41	34.757	68.712	871.56	408.37	140.72	1006.8	673.69	-167.01	947.47	646.22	143.6	542.39	81.763	36.074	869.73	1503.8	-119.43	1023.9	174.61	-47.739	703.94	310.27	147.71	762.08	774.35	-284.62	810.55	1018.9	-263.77	554.53	215.22	38.425	895.72	640.28	169.78	1032.2	790.71	247.45	531.29	219.57	117.98	495.99	258.72	76.694	777.41	952.4	-59.972	899.18	1005.5	231.7	900.32	726.66	185.06	861.38	1515.2	24.936	788.74	1194.8	-23.36	777.98	945.28	39.847	786.93	1283.2	40.342	987.8	433.35	-4.3376	865.9	1403.8	-39.957	872.01	993.44	156.61	805.3	1000.7	-191	971.44	63.099	-91.142	913.11	35.403	-50.825	1076	23.618	-100.09	1162.8	26.713	-42.572	1106.4	29.948	-16.034	979.59	83.169	-10.69
437	2.185	1011.5	1582.9	-90.471	1004.3	1586.4	8.8857	982.25	1300.6	-36.831	962.81	902.79	-133.07	955.8	899.97	115.7	915.51	1338.7	129.37	910.26	1171.5	188.94	992.72	901.99	249.15	1082.8	821.09	208.5	1104	756.4	255.79	909.2	1340.4	-193.56	872.53	1167.1	-248.61	844.68	764.44	-297.84	905.95	558.24	158.38	743.05	272.24	106.5	938.35	736.88	-202.23	978.11	574.33	-161.1	957.53	654.34	-183.67	1047.1	343	-63.862	1024.3	254.33	-117.14	1033.3	257.87	-56.736	1014	440.03	-134.85	818.85	315.93	111.41	798.23	708.59	-329.87	812.76	886.48	-298.18	667.46	231.54	99.571	1004.1	1165.3	-30.445	872.15	403.29	11	528.41	103.24	115.44	572.34	36.785	69.304	886.33	408.98	140.38	1012.3	673.58	-167.26	957.91	647.92	143.3	556.53	84.365	36.426	876.95	1504.8	-119.81	1024.7	174.24	-48.084	718.84	311.53	147.51	776.36	773.94	-287.25	821.08	1019.2	-265.38	568.23	218.11	38.142	906.22	641.1	169.54	1036	790.37	247.69	545.15	222.47	117.76	509.52	261.44	76.535	784.44	953.41	-60.31	905.3	1006.5	231.21	909.27	727.59	184.65	868.59	1516.5	24.55	795.71	1195.9	-23.72	784.86	946.16	39.439	793.77	1284.3	39.983	990.45	433.3	-4.7823	872.95	1404.9	-40.208	878.46	994.57	155.99	815.29	1000.8	-192.63	971.29	63.052	-91.189	913.02	35.39	-50.886	1075.9	23.677	-100.22	1162.8	26.765	-42.69	1106.3	30.065	-16.096	979.7	83.194	-10.747
